<?xml version="1.0" encoding="UTF-8"?>
<svg width="715px" height="195px" viewBox="0 0 715 195" version="1.1" xmlns="http://www.w3.org/2000/svg" xmlns:xlink="http://www.w3.org/1999/xlink">
    <title>Eva</title>
    <desc>Empowering you to own your health</desc>
    <g id="evatech.co" stroke="none" stroke-width="1" fill="none" fill-rule="evenodd">
        <g id="Eva Technologies" transform="translate(-363.000000, -415.000000)" fill="#5C2933" fill-rule="nonzero">
            <g id="Eva" transform="translate(363.000000, 414.000000)">
                <path d="M197.16,115.76 C185.710773,149.700662 155.733746,174.009306 120.16,178.2 C96,181.06 70,174.45 47.58,155.72 C19.1,128.77 10.13,91 21.65,56.72 L21.65,56.72 C22.0186919,55.5683222 22.1380026,54.3513538 22,53.15 C21.5454052,49.2748783 18.4736575,46.2278595 14.594988,45.8046015 C10.7163185,45.3813435 7.05968444,47.6941308 5.78,51.38 L5.78,51.38 C-13.4754067,108.621553 17.3184482,170.634591 74.5600005,189.889998 C131.801553,209.145406 193.814592,178.351552 213.07,121.11 L197.16,115.76 Z" id="Path"></path>
                <path d="M63.71,159.38 C78.0357595,168.360301 94.6873488,172.92662 111.59,172.51 C117.53424,172.358233 123.447793,171.604381 129.24,170.26 L125.44,153.93 C87.7658961,162.67819 50.1331914,139.229104 41.385001,101.555 C32.6368107,63.880896 56.0858963,26.2481909 93.76,17.5 L93.76,17.5 C97.9395701,16.4901816 100.674082,12.4777592 100.085516,8.21840138 C99.4969505,3.95904354 95.7767975,0.838538482 91.48,1 C90.9826445,1.02029585 90.4877212,1.08048923 90,1.18 L90,1.18 L89.86,1.18 L89.69,1.18 C55.5385132,9.19978787 29.5731793,36.9903253 23.8883204,71.6071338 C18.2034614,106.223942 33.9170908,140.859103 63.71,159.38 L63.71,159.38 Z" id="Path"></path>
                <path d="M59.56,126.08 L72.79,115.78 C53.18,90.59 63.28,51.56 97.79,41.19 C117.22,36.66 135.79,43.47 147.07,57.98 L147.07,57.98 C149.960592,61.4476004 155.080302,61.9981013 158.642007,59.224289 C162.203711,56.4504767 162.923971,51.3518775 160.27,47.7 L160.27,47.7 C146.361751,29.4175939 123.702407,20.0186995 100.937138,23.0892562 C78.1718699,26.1598128 58.8123744,41.2261663 50.2448376,62.5400839 C41.6773008,83.8540015 45.2233237,108.127666 59.53,126.1 L59.56,126.08 Z" id="Path"></path>
                <path d="M138.39,109.59 C141.369004,109.512635 144.081598,107.855362 145.51,105.24 L145.51,105.24 C145.51,105.18 145.57,105.11 145.61,105.05 C145.65,104.99 145.61,104.94 145.68,104.88 C153,90.61 151.6,73.43 141,59.63 C120,35.79 85.09,42 72.07,66.87 L86.93,74.63 C94.68,59.8 115.49,56.13 127.93,70.32 C134.139377,78.037988 135.206182,88.6942674 130.65,97.49 L130.65,97.49 C129.333513,100.118934 129.494794,103.24617 131.074743,105.725726 C132.654691,108.205282 135.421019,109.672608 138.36,109.59 L138.39,109.59 Z" id="Path"></path>
                <path d="M100,104 L100.69,104.31 C110.392449,108.412414 121.609469,104.217069 126.238395,94.7544916 C130.867321,85.2919146 127.294159,73.8614739 118.1,68.72 L110.34,83.58 C111.352506,84.0729641 112.016653,85.0777232 112.073428,86.2024269 C112.130203,87.3271306 111.570614,88.3936638 110.612898,88.9860845 C109.655183,89.5785051 108.45101,89.6029937 107.47,89.05 L107.47,89.05 C103.387965,87.001709 98.417527,88.6038557 96.3000889,92.6504545 C94.1826509,96.6970532 95.7000087,101.694028 99.71,103.88 L99.71,103.88 L100,104 Z" id="Path"></path>
                <path d="M442.7,166.38 C517.31,166.38 569.6,105.65 569.6,30.22 L542.37,30.22 C542.37,80.87 514.37,123.35 469.93,135.61 L469.93,30.22 L442.7,30.22 L442.7,166.38 Z" id="Path"></path>
                <path d="M687.39,30.22 L687.39,43.84 C663.706477,26.2046796 631.348415,25.8694176 607.304576,43.0102345 C583.260737,60.1510514 573.026919,90.8500015 581.976122,118.989397 C590.925325,147.128792 617.011994,166.276697 646.54,166.380109 C661.319987,166.406712 675.689736,161.520646 687.39,152.49 L687.39,166.380109 L714.62,166.380109 L714.62,30.22 L687.39,30.22 Z M646.54,139.15 C624.014916,139.001116 605.861303,120.646548 605.959992,98.121189 C606.059488,75.5958305 624.373883,57.4016899 646.899406,57.4508902 C669.424928,57.5002904 687.660183,75.7744235 687.660183,98.3 C687.692587,109.190966 683.362056,119.641335 675.63562,127.317037 C667.909185,134.992739 657.430515,139.254333 646.54,139.15 Z" id="Shape"></path>
                <path d="M312.11,85 C317.83,69.2 332.8,57.5 350.5,57.5 C367.895158,57.6080351 383.357798,68.6042227 389.17,85 L312.11,85 Z M282.69961,98.3 C282.61245,129.320558 303.529634,156.468334 333.547231,164.293072 C363.564829,172.117809 395.073035,158.635848 410.14,131.52 L384,121.72 C374.70231,135.052672 358.364689,141.576779 342.440688,138.315892 C326.516687,135.055004 314.058577,122.63416 310.75,106.72 L418.31,106.72 C418.58,104 418.85,101 418.85,98.28 C418.85,60.7 387.85,30.2 350.5,30.2 C332.471969,30.2184903 315.192027,37.4088257 302.472449,50.1846849 C289.752871,62.9605441 282.638897,80.2720632 282.69961,98.3 L282.69961,98.3 Z" id="Shape"></path>
            </g>
        </g>
    </g>
</svg>
